<svg id="Capa_1" enable-background="new 0 0 511.53 511.53" height="512" viewBox="0 0 511.53 511.53" width="512" xmlns="http://www.w3.org/2000/svg"><g><path d="m100.337 445.73-38.025 23.903-7.585-12.067 38.025-23.892z" fill="#dceaec"/><path d="m108.69 459.014-38.025 23.902-8.353-13.273v-.01l38.025-23.903z" fill="#9ab8c2"/><path d="m470.087 302.563-162.499 102.148-40.371-63.894 23.215-14.621 24.302 38.664 139.414-87.647z" fill="#9ab8c2"/><path d="m264.273 284.588 26.159 41.608-23.215 14.621-42.256-66.878 162.798-102.338 15.929 25.34z" fill="#dceaec"/><path d="m290.451 326.226-126.739 79.672-25.202-11.075 1.678-26.341 23.085-14.511 61.688-80.032 23.384-14.701z" fill="#9ab8c2"/><path d="m78.63 495.591-25.35 15.939-16.318-25.959 25.35-15.928 8.353 13.273z" fill="#738b95"/><path d="m62.312 469.633v.01l-25.35 15.928-15.549-24.741 25.35-15.928 7.964 12.664z" fill="#9ab8c2"/><path d="m162.644 460.461-50.7 31.877-24.282-38.634 50.7-31.867 25.35 11.592z" fill="#738b95"/><path d="m138.362 421.837-50.7 31.867-23.524-37.416 50.7-31.867 24.465 9.908z" fill="#9ab8c2"/><path d="m163.712 405.898-9.248 14.495-16.102 1.444-23.524-37.416 25.35-15.939z" fill="#08475e"/><path d="m507.772 316.295-21.288 21.058c-22.236-22.486-42.047-47.456-58.874-74.223l-10.419-16.577 25.35-15.939 10.419 16.587c15.67 24.922 34.113 48.166 54.812 69.094z" fill="#910035"/><path d="m330.672 390.209-23.084 14.502-96.2 25.11-23.394 14.711-24.282-11.103v-27.531l126.739-79.672z" fill="#738b95"/><path d="m187.994 444.532-25.35 15.929-24.282-38.624 25.35-15.939z" fill="#08475e"/><path d="m82.682 309.818-21.707 19.507-22.697 8.414-1.206-16.084 25.349-15.928z" fill="#f7f9fa"/><path d="m78.354 331.074-25.344 15.931-14.732-9.266 6.379-4.018 38.025-23.903z" fill="#dceaec"/><path d="m452.432 166.651-162.499 102.148-40.331-63.824 23.244-14.581 24.232 38.554 139.415-87.647z" fill="#dceaec"/><path d="m246.618 148.676 26.228 41.718-23.244 14.581-42.296-66.948 162.798-102.338 15.929 25.341z" fill="#f7f9fa"/><g><path d="m417.725 188.469-25.404 15.969c5.627 10.61 11.638 21.058 17.873 30.977l6.996 11.138 25.35-15.939-7.006-11.138c-6.238-9.925-12.241-20.397-17.809-31.007z" fill="#c40048"/></g><path d="m424.886 94.703-25.35 15.938-6.996-11.138c-17.805-28.324-33.853-60.93-44.023-89.453l28.204-10.05c9.461 26.558 24.472 57.017 41.159 83.565z" fill="#ff4a4a"/><path d="m272.796 190.314-126.739 79.673-23.524-10.338v-27.078l23.084-14.512 61.689-80.032 23.384-14.701z" fill="#dceaec"/><path d="m44.657 333.721v.01l-10.22 13.274-15.13 2.655-15.549-24.742 25.35-15.928 7.964 12.665z" fill="#dceaec"/><path d="m144.989 324.549-50.7 31.877-24.282-38.633 50.7-31.868 28.851 13.193z" fill="#c0d9dd"/><path d="m120.707 285.925-50.7 31.868-23.524-37.417 50.7-31.867 24.334 13.753z" fill="#dceaec"/><path d="m146.057 269.987-10.545 13.994-14.805 1.944-23.524-37.416 25.35-15.938z" fill="#0a789b"/><path d="m490.117 180.384-21.288 21.058c-22.236-22.486-42.047-47.456-58.874-74.223l-10.419-16.577 25.35-15.938 10.419 16.587c15.67 24.92 34.113 48.164 54.812 69.093z" fill="#c40048"/><path d="m313.017 254.298-23.084 14.501-96.201 25.111-23.393 14.711-23.747-10.859-.535-27.775 126.739-79.673z" fill="#c0d9dd"/><path d="m170.339 308.621-25.35 15.928-24.282-38.624 25.35-15.938z" fill="#08475e"/><path d="m60.975 359.68-25.35 15.938-16.318-25.958 25.35-15.929 8.353 13.274z" fill="#c0d9dd"/></g></svg>