<svg id="Capa_1" enable-background="new 0 0 509.968 509.968" height="512" viewBox="0 0 509.968 509.968" width="512" xmlns="http://www.w3.org/2000/svg"><g><path d="m390 133.817v151.187h-15l-130 150v15h-50l-12.066-165 12.066-165z" fill="#c0d9dd"/><path d="m195 120.004v330h-195v-316.187z" fill="#f1f6f7"/><path d="m488.03 360.754-63.64 63.64-74.094-32.126 62.088-86.626 75.555-51.027c.03.02.06.05.09.08 29.251 29.239 29.251 76.819.001 106.059z" fill="#c0d9dd"/><path d="m300 180.004h30v30h-30z" fill="#00b5bc"/><path d="m240 180.004h30v30h-30z" fill="#00b5bc"/><path d="m195 180.004h15v30h-15z" fill="#00b5bc"/><path d="m180 180.004h15v30h-15z" fill="#00eecf"/><path d="m195 240.004h15v30h-15z" fill="#00b5bc"/><path d="m180 240.004h15v30h-15z" fill="#00eecf"/><path d="m195 300.004h15v30h-15z" fill="#00b5bc"/><path d="m180 300.004h15v30h-15z" fill="#00eecf"/><path d="m195 360.004h15v30h-15z" fill="#00b5bc"/><path d="m180 360.004h15v30h-15z" fill="#00eecf"/><path d="m120 180.004h30v30h-30z" fill="#00eecf"/><path d="m60 180.004h30v30h-30z" fill="#00eecf"/><path d="m300 240.004h30v30h-30z" fill="#00b5bc"/><path d="m240 240.004h30v30h-30z" fill="#00b5bc"/><path d="m120 240.004h30v30h-30z" fill="#00eecf"/><path d="m60 240.004h30v30h-30z" fill="#00eecf"/><path d="m240 300.004h30v30h-30z" fill="#00b5bc"/><g fill="#00eecf"><path d="m120 300.004h30v30h-30z"/><path d="m60 300.004h30v30h-30z"/><path d="m60 360.004h30v30h-30z"/><path d="m120 360.004h30v30h-30z"/></g><path d="m0 30.004v103.813h195l28.022-51.907-28.022-51.906z" fill="#ff4a4a"/><path d="m195 30.004h195v103.813h-195z" fill="#c40048"/><path d="m90 .004h30v90h-30z" fill="#fc0"/><path d="m270 .228h30v90h-30z" fill="#ff9000"/><path d="m487.94 254.614-137.644 137.653-31.966-73.934 63.64-63.64c29.21-29.219 76.72-29.249 105.97-.079z" fill="#f1f6f7"/><path d="m424.39 424.394-63.64 63.64c-14.62 14.62-33.82 21.93-53.03 21.93s-38.41-7.31-53.03-21.93c-.03-.03-.06-.06-.08-.09l42.786-82.083 73.884-34.577z" fill="#c40048"/><path d="m371.28 371.284-116.67 116.66c-29.16-29.25-29.13-76.76.08-105.97l63.64-63.64z" fill="#ff4a4a"/></g></svg>