<svg id="Capa_1" enable-background="new 0 0 500 500" height="512" viewBox="0 0 500 500" width="512" xmlns="http://www.w3.org/2000/svg"><g><path d="m342.55 0-11.161 70.714 6.106 27.385-14.675 26.901-33.062 13.978-39.758-13.978-14.15-66.725 14.15-58.275z" fill="#dceaec"/><path d="m250 0v125l-35.802 6.857-37.018-6.857-12.18-29.538 3.609-24.761-11.159-70.701z" fill="#f7f9fa"/><path d="m460 440.49v59.51h-60l-39.824-15.264-50.176 15.264h-45.85l7.806-126.033 51.024-58.287 67.73 25.15c41.44 15.4 69.29 55.44 69.29 99.66z" fill="#00b5bc"/><path d="m227.253 384.648 8.597 115.352h-195.85v-59.51c0-44.22 27.85-84.26 69.29-99.66l66.94-24.86z" fill="#00eecf"/><path d="m322.98 315.68-58.83 184.32h-14.15v-190h57.7z" fill="#dceaec"/><path d="m250 310v190h-14.15l-60.1-183.33.48-.7 16.07-5.97z" fill="#f7f9fa"/><path d="m355 412h30v45h-30z" fill="#fc0"/><path d="m420 220c0 38.6-31.4 70-70 70h-100v-165h72.82l8.569-54.286c24.956 13.622 46.136 33.299 61.621 57.346 17.66 27.41 26.99 59.2 26.99 91.94z" fill="#ff4a4a"/><path d="m177.18 125h72.82v165h-100c-38.6 0-70-31.4-70-70 0-62.837 34.267-119.717 88.605-149.298z" fill="#ff936a"/><path d="m355 200v42c0 57.9-47.1 105-105 105v-192h13.03l4.45 6.68c15.76 23.64 43.55 38.32 72.52 38.32z" fill="#ffd298"/><path d="m250 155v192c-57.9 0-105-47.1-105-105v-42h15c28.97 0 56.76-14.68 72.52-38.32l4.45-6.68z" fill="#ffe3c1"/><path d="m115 440h50v30h-50z" fill="#ffe377"/><path d="m310 442h90v58h-90z" fill="#00eecf"/></g></svg>