<svg id="Capa_1" enable-background="new 0 0 510 510" height="512" viewBox="0 0 510 510" width="512" xmlns="http://www.w3.org/2000/svg"><g><path d="m450 195v73.24h-30v-73.24c0-90.98-74.02-165-165-165v-30c107.52 0 195 87.48 195 195z" fill="#c0d9dd"/><path d="m354.605 260-71.25 190h89.595c42.485 0 77.05-34.564 77.05-77.05v-112.95z" fill="#00b5bc"/><path d="m390 203.95c0 43.57-9.74 87.47-28.16 126.95l-57.89 124.04c-10.07 21.57-27.76 38.22-48.95 47.32v-432.25c.35-.01.7-.01 1.05-.01 73.86 0 133.95 60.09 133.95 133.95z" fill="#ffd298"/><path d="m255 70.01v432.25c-11.67 5.02-24.39 7.74-37.5 7.74-52.6 0-95.4-42.8-95.4-95.4v-210.65c0-73.51 59.52-133.38 132.9-133.94z" fill="#ffe3c1"/><path d="m330 210c0 28.72-6.08 56.51-18.07 82.61l-56.93 123.91v-71.86l29.67-64.58c10.17-22.13 15.33-45.71 15.33-70.08 0-24.81-20.19-45-45-45v-30c41.36 0 75 33.64 75 75z" fill="#edae80"/><path d="m255 135v30c-24.81 0-45 20.19-45 45v30h-30v-30c0-41.36 33.65-75 75-75z" fill="#ffd298"/><path d="m222.08 416.31 32.92-71.65v71.86l-5.66 12.32z" fill="#ffd298"/><path d="m90 195c0 41.36 33.65 75 75 75v30c-57.9 0-105-47.1-105-105 0-107.52 87.48-195 195-195v30c-90.98 0-165 74.02-165 165z" fill="#dceaec"/><path d="m150 240h90v90h-90z" fill="#ff936a"/></g></svg>