<svg id="Capa_1" enable-background="new 0 0 510 510" height="512" viewBox="0 0 510 510" width="512" xmlns="http://www.w3.org/2000/svg"><g><path d="m450.931 60v420h-180l-18.527-232.5 18.527-187.5z" fill="#dceaec"/><path d="m270.931 60v420h-110.54v-181.33c-39.44-7.1-69.46-41.68-69.46-83.13v-155.54z" fill="#f7f9fa"/><path d="m301.991 385.16-14.57 47.35c-6.95 22.6-20.68 41.97-39.7 56.02-19.02 14.04-41.57 21.47-65.22 21.47l-16.57-112.451 16.57-127.549h34.44c27.18 0 52.51 12.17 69.49 33.4 18.41 23.02 24.23 53.58 15.56 81.76z" fill="#910035"/><path d="m182.501 270v240c-23.64 0-46.2-7.43-65.22-21.47-19.02-14.05-32.75-33.42-39.7-56.02l-14.57-47.35c-8.67-28.18-2.85-58.74 15.57-81.76 16.97-21.23 42.3-33.4 69.48-33.4z" fill="#c40048"/><path d="m140.931 210h-50v35c0 30.327 24.673 55 55 55h20l11.044-31.945 3.026-41.729c-9.974-10.076-23.805-16.326-39.07-16.326z" fill="#00eecf"/><path d="m390.931 30v105h-120l-14.835-56.82 14.835-78.18h51.21l30 30z" fill="#08475e"/><path d="m270.931 0v135h-120v-105h38.79l30-30z" fill="#0a789b"/><path d="m270.931 195h125v30h-125z" fill="#00b5bc"/><path d="m315.931 255h80v30h-80z" fill="#00b5bc"/><path d="m240.931 195v30c-24.81 0-45 20.19-45 45v30h-13.43v-76.96c13.75-17.09 34.84-28.04 58.43-28.04z" fill="#8e4813"/><path d="m182.501 223.04v76.96h-16.57v-30c0-17.76 6.2-34.1 16.57-46.96z" fill="#c37e4e"/></g></svg>