<svg id="Capa_1" enable-background="new 0 0 510 510" height="512" viewBox="0 0 510 510" width="512" xmlns="http://www.w3.org/2000/svg"><g><path d="m330 102.5h90v90h-90z" fill="#c0d9dd"/><path d="m420.031 162.5h-90.031v120h130.031z" fill="#08475e"/><path d="m380 377.5v32.5c0 23.472 19.028 42.5 42.5 42.5 23.472 0 42.5-19.028 42.5-42.5v-31.346" fill="#738b95"/><path d="m422.5 467.5c-31.706 0-57.5-25.794-57.5-57.5v-32.5h30v32.5c0 15.164 12.336 27.5 27.5 27.5s27.5-12.336 27.5-27.5v-31.346h30v31.346c0 31.706-25.794 57.5-57.5 57.5z" fill="#08475e"/><path d="m65 377.5v32.5c0 23.472 19.028 42.5 42.5 42.5 23.472 0 42.5-19.028 42.5-42.5v-31.346z" fill="#dceaec"/><path d="m107.5 467.5c-31.706 0-57.5-25.794-57.5-57.5v-47.705l115 1.561v46.144c0 31.706-25.794 57.5-57.5 57.5zm-27.5-74.795v17.295c0 15.164 12.336 27.5 27.5 27.5s27.5-12.336 27.5-27.5v-16.548z" fill="#0a789b"/><path d="m464.539 252.5h-134.539v150h180v-104.539c0-25.067-20.394-45.461-45.461-45.461z" fill="#c0d9dd"/><path d="m450 312.5h60v30h-60z" fill="#ff9000"/><path d="m241.32 102.843-68.82 29.657-11.984-56.736 11.984-33.264h33.62z" fill="#c40048"/><path d="m172.5 42.5v90l-68.62-30 35-60z" fill="#ff4a4a"/><path d="m345 102.5v300h-172.5l-24.82-163.991 24.82-136.009z" fill="#dceaec"/><path d="m0 102.5h172.5v300h-172.5z" fill="#f7f9fa"/><path d="m197.32 237.5 44 33.38-18.13 23.9-35.69-27.07v44.79h-15l-7.5-80 7.5-70h15v44.79l35.69-27.07 18.13 23.9z" fill="#00b5bc"/><path d="m172.5 162.5v75 75h-15v-44.79l-35.69 27.07-18.13-23.9 44-33.38-44-33.38 18.13-23.9 35.69 27.07v-44.79z" fill="#00eecf"/></g></svg>