<svg id="Capa_1" enable-background="new 0 0 507.405 507.405" height="512" viewBox="0 0 507.405 507.405" width="512" xmlns="http://www.w3.org/2000/svg"><g><path d="m246.659 260.385-226.27 226.27c-13.68-13.88-20.93-32.95-19.93-52.42 1.02-19.64 10.35-38.01 25.61-50.41l189.81-154.22z" fill="#0a789b"/><path d="m281.139 294.865-157.95 187.75c-12.51 14.88-30.83 23.89-50.25 24.72-.99.05-1.98.07-2.97.07-18.38 0-36.18-7.34-49.22-20.38-.12-.12-.24-.24-.36-.37l226.27-226.27z" fill="#08475e"/><path d="m434.989 406.615v4.07c0 12.47-4.86 24.2-13.68 33.02l-62.43 62.43v-135.78c8.29-6.76 18.57-10.43 29.42-10.43 25.74 0 46.69 20.94 46.69 46.69z" fill="#910035"/><path d="m358.879 370.355v135.78l-62.44-62.43c-8.82-8.82-13.67-20.55-13.67-33.02v-4.07c0-25.75 20.94-46.69 46.69-46.69 10.84 0 21.12 3.67 29.42 10.43z" fill="#c40048"/><path d="m448.179 270.995c-58.57 58.57-153.55 58.57-212.13 0l212.13-212.13c58.58 58.58 58.58 153.55 0 212.13z" fill="#c0d9dd"/><path d="m448.179 58.855v.01l-212.13 212.13c-58.58-58.58-58.58-153.56 0-212.14 58.58-58.57 153.56-58.57 212.13 0z" fill="#f7f9fa"/><path d="m485.369 149.925v30h-71.7l-55.05 87.77-38.68-80.59 22.48-22.48 19.7 41.03 34.95-55.73z" fill="#910035"/><path d="m342.419 164.625-22.48 22.48-20.63-42.98-20.17 35.8h-88.77v-30h71.23l39.83-70.7z" fill="#c40048"/><path d="m225.449 48.255c-64.34 64.33-64.34 169.01 0 233.34l21.21-21.21c-52.64-52.64-52.64-138.28 0-190.92 26.32-26.32 60.88-39.48 95.46-39.48 34.57 0 69.14 13.17 95.46 39.48l21.21-21.21c-64.33-64.34-169.01-64.34-233.34 0z" fill="#00eecf"/><path d="m458.789 281.595c-16.08 16.09-34.68 28.15-54.55 36.19s-40.99 12.06-62.12 12.06c-42.26 0-84.5-16.08-116.67-48.25l21.21-21.21c52.64 52.64 138.28 52.64 190.92 0 52.63-52.64 52.63-138.28 0-190.92l21.21-21.21c64.33 64.33 64.33 169.01 0 233.34z" fill="#00b5bc"/></g></svg>