<svg id="Capa_1" enable-background="new 0 0 510 510" height="512" viewBox="0 0 510 510" width="512" xmlns="http://www.w3.org/2000/svg"><g><path d="m353.75 217.33v150l-150.62 60-24.333-217.5 24.333-178.21 149.37 35.71v22.47z" fill="#dceaec"/><path d="m203.13 31.62v395.71l-150.63-60v-300z" fill="#f7f9fa"/><path d="m352.5 49.09v18.24l-62.934 24.527-86.436-24.527-24.333-35.71 24.333-31.62h100.28c27.07 0 49.09 22.03 49.09 49.09z" fill="#00b5bc"/><path d="m353.75 262.231v198.689c0 27.06-22.02 49.08-49.08 49.08h-101.54l-42.795-75.813 42.795-66.857h120.62v-105.099l14.871-7.231z" fill="#00b5bc"/><path d="m82.5 67.33v300h120.63v142.67h-101.54c-27.07 0-49.09-22.02-49.09-49.08v-411.83c0-27.06 22.02-49.09 49.09-49.09h101.54v67.33z" fill="#00eecf"/><path d="m203.126 67.33v240h25.355l55-45h174.019v-195z" fill="#c40048"/><path d="m375 149.83h-30v-30h-30v30h-30v30h30v30h30v-30h30z" fill="#f1f6f7"/><path d="m203.13 442.331h-30.624v-30h30.624l7.843 15z" fill="#0a789b"/><path d="m203.188 412.331h30.624v30h-30.624z" fill="#08475e"/></g></svg>