<svg id="Capa_1" enable-background="new 0 0 510 510" height="512" viewBox="0 0 510 510" width="512" xmlns="http://www.w3.org/2000/svg"><g><path d="m256 30h224v450h-224z" fill="#00b5bc"/><path d="m30 30h226v450h-226z" fill="#00eecf"/><path d="m256 135h224v240h-224z" fill="#00959a"/><path d="m30 135h226v240h-226z" fill="#00ccb2"/><path d="m408.9 162.53-16.66 220.57c-2.61 34.62-18.07 66.69-43.53 90.29-25.3 23.47-58.21 36.46-92.71 36.6l-17.418-236.001 17.418-273.979c.73 0 1.45-.01 2.18-.01 41.93 0 82.32 17.63 110.83 48.37 28.51 30.75 43.05 72.36 39.89 114.16z" fill="#dceaec"/><path d="m256 .01v509.98c-.2.01-.4.01-.6.01-73.18 0-133.38-57.25-137.06-130.33l-11.12-220.92c-2.1-41.76 12.61-81.45 41.42-111.76 28.32-29.77 66.37-46.41 107.36-46.98z" fill="#f1f6f7"/><path d="m387.273 194.16 6.123 23.51-86.786 118.75-50.61-24.66-21.374-53.55 21.374-78.21h60.49z" fill="#ff4a4a"/><path d="m256 180v131.76l-145.887-95.54-.373-7.5 93-28.72z" fill="#ff936a"/><path d="m408.56 167-4.61 61.09-4.45-.89-131.08 167.24 104.2 49.73c-5.31 8.71-11.61 16.84-18.83 24.26l-97.79-46.67-8.714-29.845 8.714-30.255 22.18-28.3-22.18-11.09-8.714-19.797 8.714-13.743 41.06 20.53z" fill="#c0d9dd"/><path d="m256 288.73v33.54l-144.18-72.09-1.707-33.96 26.137 12.64z" fill="#dceaec"/><path d="m240.68 381.2 15.32-19.54v60.1l-138.88-66.29-1.71-34.06z" fill="#dceaec"/><path d="m331 140v25c0 41.36-33.64 75-75 75l-14.253-62.522 14.253-62.522z" fill="#ffd298"/><path d="m256 114.956v125.044c-41.36 0-75-33.64-75-75v-25z" fill="#ffe3c1"/><path d="m331 135v5h-75l-14.253-43.2 14.253-36.8c41.36 0 75 33.64 75 75z" fill="#ff4a4a"/><path d="m256 60v80h-75v-5c0-41.36 33.64-75 75-75z" fill="#ff936a"/></g></svg>