<svg id="Capa_1" enable-background="new 0 0 510 510" height="512" viewBox="0 0 510 510" width="512" xmlns="http://www.w3.org/2000/svg"><g><path d="m360 0h135v510h-135z" fill="#9ab8c2"/><path d="m360 0v510h-134.02l-.98-315v-195z" fill="#c0d9dd"/><path d="m225 180h210v330h-210z" fill="#dceaec"/><path d="m15 180h210v330h-210z" fill="#f7f9fa"/><path d="m285 60h30v30h-30z" fill="#0a789b"/><path d="m345 60h15v30h-15z" fill="#0a789b"/><path d="m405 60h30v30h-30z" fill="#08475e"/><path d="m285 120h30v30h-30z" fill="#0a789b"/><path d="m285 360h90v150h-90z" fill="#08475e"/><path d="m345 120h15v30h-15z" fill="#0a789b"/><g fill="#08475e"><path d="m360 60h15v30h-15z"/><path d="m360 120h15v30h-15z"/><path d="m405 120h30v30h-30z"/></g><path d="m135 60v30h-30v-30h-30v90h30v-30h30v30h30v-90z" fill="#ff4a4a"/><path d="m375 270h-30v-30h-30v30h-30v30h30v30h30v-30h30z" fill="#c40048"/><path d="m15 442.5h210v67.5h-210z" fill="#08475e"/><path d="m15 375h210v67.5h-210z" fill="#0a789b"/><path d="m15 307.5h210v67.5h-210z" fill="#08475e"/><path d="m15 240h210v67.5h-210z" fill="#0a789b"/></g></svg>