<svg id="Capa_1" enable-background="new 0 0 510 510" height="512" viewBox="0 0 510 510" width="512" xmlns="http://www.w3.org/2000/svg"><g><path d="m480 0v405l-225-132.96v-272.04z" fill="#00b5bc"/><path d="m255 0v266.78l-225 138.22v-405z" fill="#00eecf"/><path d="m255 90h225v150h-225z" fill="#00959a"/><path d="m30 90h225v150h-225z" fill="#00ccb2"/><path d="m480 405.58v104.42h-90l-15-10.516-15 10.516h-105l-15.495-88.319 15.495-149.641 68.32-5.26 110.84 61.15c28.27 15.6 45.84 45.35 45.84 77.65z" fill="#ffd298"/><path d="m255 272.04v237.96h-105l-15-17.637-15 17.637h-90v-101.67c0-33.82 19.68-65.17 50.13-79.87l105.9-51.12z" fill="#ffe3c1"/><path d="m360 167.08v60c0 57.89-47.1 105-105 105l-19.187-127.08 19.187-142.92c57.9 0 105 47.1 105 105z" fill="#ffd298"/><path d="m255 62.08v270c-57.9 0-105-47.11-105-105v-60c0-57.9 47.1-105 105-105z" fill="#ffe3c1"/><path d="m360 435h30v75h-30z" fill="#ff936a"/><path d="m120 435h30v75h-30z" fill="#ffd298"/><path d="m180 435h30v30h-30z" fill="#ffd298"/><path d="m300 435h30v30h-30z" fill="#ff936a"/><path d="m360 167.08v37.92h-105l-19.187-59.187 19.187-83.733c57.9 0 105 47.1 105 105z" fill="#dceaec"/><path d="m255 62.08v142.92h-105v-37.92c0-57.9 47.1-105 105-105z" fill="#f1f6f7"/><path d="m331.71 203.64-1.4 1.36h-39.17l-36.14-37.08-10.22-21.052 10.22-21.928z" fill="#c0d9dd"/><path d="m255 124.94v42.98l-73.67-75.58c1.8-1.78 3.66-3.49 5.58-5.13 1.93-1.64 3.91-3.21 5.95-4.71 4.07-3 8.37-5.72 12.86-8.12z" fill="#dceaec"/><path d="m372.32 293.81c-23.27 40.74-67.14 68.27-117.32 68.27l-7.055-14.772 7.055-15.228c38.89 0 72.91-21.26 91.06-52.76z" fill="#ff936a"/><path d="m255 332.08v30c-47.96 0-90.16-25.15-114.11-62.95l27.23-13.15c18.91 27.8 50.8 46.1 86.88 46.1z" fill="#ffd298"/></g></svg>