<svg id="Capa_1" enable-background="new 0 0 509.978 509.978" height="512" viewBox="0 0 509.978 509.978" width="512" xmlns="http://www.w3.org/2000/svg"><g><path d="m500.909 43.708-37.49 466.27h-208.43v-509.96c3.68.02 7.35.08 11.03.17 2.53.06 5.07.14 7.61.22 49.42 1.68 99.43 9.18 148.64 22.32z" fill="#c0d9dd"/><path d="m254.989.018v509.96h-208.49l-37.43-465.46 27.44-9.28c70.79-23.93 144.23-35.76 218.48-35.22z" fill="#dceaec"/><path d="m400.949 84.288-12.4 142.51-15.45-1.94c-39.19-4.9-78.65-7.34-118.11-7.34v-157.48c3.15.01 6.3.06 9.46.15 2.17.06 4.34.14 6.5.22 44.06 1.77 78.4 7.63 118.51 20.26z" fill="#dceaec"/><path d="m254.989 60.038v157.48c-39.48 0-78.97 2.44-118.17 7.34l-15.45 1.94-12.42-142.82 11.86-3.42c49.77-14.31 91.61-20.74 134.18-20.52z" fill="#f1f6f7"/><path d="m311.691 63.566-6.64 59.755 29.816 3.313 6.488-58.388c-9.756-1.918-19.559-3.463-29.664-4.68z" fill="#08475e"/><path d="m406.687 404.978h-122.303l8.544 105h106.76z" fill="#05303d"/><path d="m221.924 404.978h-122.694l7 105h107.152z" fill="#0a617d"/><path d="m175.051 126.634 29.816-3.313-6.618-59.558c-9.695 1.311-19.534 2.957-29.63 4.993z" fill="#0a789b"/><path d="m269.959 60.378v59.6h-14.97v-59.94c3.15.01 6.3.07 9.46.15 1.84.06 3.67.12 5.51.19z" fill="#08475e"/><path d="m254.989 60.038v59.94h-15.03v-59.73c5.01-.16 10.01-.23 15.03-.21z" fill="#0a789b"/><path d="m315.099 161.038-60.11 55.1v-40.7l39.83-36.52z" fill="#c40048"/><path d="m254.989 175.438v40.7l-1.51 1.38c-15.23.02-30.46.42-45.67 1.17z" fill="#ff4a4a"/><path d="m212.037 277.776c-13.113-14.489-31.841-22.799-51.383-22.799s-38.271 8.31-51.383 22.799-19.517 33.951-17.572 53.396l10.38 103.805h117.15l10.381-103.805c1.945-19.444-4.461-38.906-17.573-53.396z" fill="#0a789b"/><path d="m397.037 277.776c-13.113-14.489-31.841-22.799-51.383-22.799s-38.271 8.31-51.383 22.799-19.517 33.951-17.572 53.396l10.38 103.805h117.15l10.381-103.805c1.945-19.444-4.461-38.906-17.573-53.396z" fill="#08475e"/></g></svg>