<svg id="Capa_1" enable-background="new 0 0 510 510" height="512" viewBox="0 0 510 510" width="512" xmlns="http://www.w3.org/2000/svg"><g><path d="m465 30v430.57c0 27.25-22.18 49.43-49.43 49.43h-160.57v-60l75-20 75 20-27.35-221.935 27.35-198.065z" fill="#ff9000"/><path d="m105 450 75-26.077 75 26.077v60h-160.57c-27.25 0-49.43-22.18-49.43-49.43v-430.57h60l29.934 195z" fill="#fc0"/><path d="m405 30v420h-150l-10.088-174.429 10.088-245.571z" fill="#dceaec"/><path d="m105 30h150v420h-150z" fill="#f7f9fa"/><path d="m345 30v90h-90v-120h15c19.56 0 36.24 12.54 42.43 30z" fill="#08475e"/><path d="m255 0v120h-90v-90h32.57c6.19-17.46 22.87-30 42.43-30z" fill="#0a789b"/><path d="m255 180h-90v-30h90l7.5 15z" fill="#00eecf"/><path d="m255 240h-90v-30h90l5.736 15z" fill="#00eecf"/><path d="m345 330h-30v-30h-30v30h-30v30h30v30h30v-30h30z" fill="#c40048"/><g fill="#00b5bc"><path d="m255 150h45v30h-45z"/><path d="m255 210h15v30h-15z"/></g></g></svg>