<svg id="Capa_1" enable-background="new 0 0 510 510" height="512" viewBox="0 0 510 510" width="512" xmlns="http://www.w3.org/2000/svg"><g><path d="m480 0v510h-270l-43.813-225 43.813-285z" fill="#08475e"/><path d="m30 0h180v510h-180z" fill="#0a789b"/><g fill="#c0d9dd"><path d="m330 360h90v30h-90z"/><path d="m360 420h60v30h-60z"/><path d="m210 95.606 11.176 81.529-11.176 107.865-43.813 10.73-3.988-112.334-42.199-23.396-7.22-59.394 37.22-15.606z"/></g><path d="m157.5 90h3.49c8.76 0 17.28 3.09 24.01 8.69l25 20.84 8.538-25.541-8.538-13.519-5.8-4.83c-12.1-10.08-27.45-15.64-43.21-15.64h-3.49c-37.22 0-67.5 30.28-67.5 67.5 0 34.68 26.3 63.34 60 67.09v129.68l60-30 8.538-19.49-8.538-14.05-30 15v-110.73h-22.5c-20.68 0-37.5-16.82-37.5-37.5s16.82-37.5 37.5-37.5z" fill="#f7f9fa"/><path d="m210 95.606 53.823-25.606 36.177 25.606 9.791 34.394-9.791 34.394-22.253 12.741-22.747 12.865v70l-45 14.78z" fill="#9ab8c2"/><path d="m330 127.5c0 34.68-26.3 63.34-60 67.09v69.68l-60 30v-33.54l30-15v-80.73h22.5c20.68 0 37.5-16.82 37.5-37.5s-16.82-37.5-37.5-37.5h-3.49c-8.76 0-17.28 3.09-24.01 8.69l-25 20.84v-39.06l5.79-4.83c12.11-10.08 27.46-15.64 43.22-15.64h3.49c37.22 0 67.5 30.28 67.5 67.5z" fill="#c0d9dd"/><path d="m210 343.18 45-17.45v184.27h-45l-13.615-80.538z" fill="#9ab8c2"/><path d="m270 295.73v214.27h-30v-165.73l-30 15-7.813-13.677 7.813-19.863z" fill="#c0d9dd"/><path d="m210 343.18v83.41 83.41h-43.813v-143.772z" fill="#c0d9dd"/><path d="m210 325.73v33.54l-30 15v135.73h-30v-154.27z" fill="#f7f9fa"/></g></svg>