<svg id="Capa_1" enable-background="new 0 0 510 510" height="512" viewBox="0 0 510 510" width="512" xmlns="http://www.w3.org/2000/svg"><g><path d="m457.5 171.53-15 8.47v223.01c0 42.45-34.54 76.99-76.99 76.99h-132.96c-16.57 0-30.05-13.48-30.05-30.05v-29.95l-15-15v84.61c11.01 12.5 27.13 20.39 45.05 20.39h132.96c39.07 0 73.32-21.06 91.99-52.42 9.53-15.99 15-34.66 15-54.57v-223.01z" fill="#910035"/><path d="m187.5 405v84.61c-9.33-10.58-15-24.48-15-39.66v-29.95z" fill="#c40048"/><path d="m367.5 78.66v226.6l-67.79 84.74-36.21-227.967-76-42.033v-120h101.34c43.37 0 78.66 35.29 78.66 78.66z" fill="#c0d9dd"/><path d="m187.5 0v165.725l-35.44 104.967-76.77 119.308-67.79-84.74v-226.6c0-43.37 35.29-78.66 78.66-78.66z" fill="#dceaec"/><path d="m187.5 60h15v30h-15z" fill="#910035"/><path d="m172.5 60h15v30h-15z" fill="#c40048"/><path d="m472.5 0v60l-15 15v-75z" fill="#9ab8c2"/><path d="m457.5 0v75l-15-15v-60z" fill="#c0d9dd"/><path d="m307.5 420v-30-30-165.89c0-40.86-33.25-74.11-74.11-74.11h-45.89l-15 132.854 15 167.146h45v-30h45v30h-15v30h60v-30z" fill="#c40048"/><path d="m141.61 120c-40.86 0-74.11 33.25-74.11 74.11v175.89 20 30h-15v30h60v-30h-15v-30h45v30h45v-300z" fill="#ff4a4a"/><path d="m457.5 60h45v120h-45z" fill="#08475e"/><path d="m412.5 60h45v120h-45z" fill="#0a789b"/></g></svg>