<svg id="Capa_1" enable-background="new 0 0 510.606 510.606" height="512" viewBox="0 0 510.606 510.606" width="512" xmlns="http://www.w3.org/2000/svg"><g><path d="m170.606 210.606v60h45l9.693-37.549-9.693-52.451z" fill="#0a617d"/><path d="m215.606 180.606v56.803 33.197h45v-60z" fill="#08475e"/><path d="m230.606 330.519v90.087l57.5 13.418 57.5-13.418 20.924-49.087-20.924-41-57.5-14.913z" fill="#c0d9dd"/><path d="m440.606 197.796v312.81h-225l-22.351-45 22.351-45h130v-172.23l-55-37.77-30-73.813 30-43.997z" fill="#08475e"/><path d="m215.606 420.606v90h-120v-15.87c0-40.88 33.25-74.13 74.13-74.13z" fill="#0a617d"/><path d="m290.606 65.606v145h-75l-14.393-68.549 14.393-76.451z" fill="#dceaec"/><path d="m215.606 65.606v145h-75v-68.79l-30-30 25-51.639 46.21-19.571 25 25z" fill="#f7f9fa"/><path d="m345.606 300.606v30h-130l-10.087-15 10.087-15z" fill="#0a617d"/><path d="m140.606 300.606h75v30h-75z" fill="#0a789b"/><path d="m273.106 360.562h30v30h-30z" fill="#00b5bc"/><path d="m57.825 50.607h155.563v30h-155.563z" fill="#0a617d" transform="matrix(.707 -.707 .707 .707 -6.673 115.104)"/></g></svg>