<svg id="Capa_1" enable-background="new 0 0 509.077 509.077" height="512" viewBox="0 0 509.077 509.077" width="512" xmlns="http://www.w3.org/2000/svg"><g><path d="m481.697 290.047c-3.31 19.09-13.55 36.15-28.84 48.04l-6.07-7.8-168.16 119.15v-164.05l125.74-77.97c14.82-9.2 33.37-7.88 46.72 1.88 4.97 4.55 9.39 9.77 13.1 15.6l.38.6.01-.01 6.12 9.61c10.4 16.35 14.31 35.86 11 54.95z" fill="#edae80"/><path d="m174.957 285.387h103.67v164.05l-15.4 10.91-211.25-10.98-41.05-17.9v-158.51l101.97-61.19c22.16-3.72 65.64 2.28 105.83-.94h38.25c12.33 0 22.37 10.04 22.37 22.37s-10.04 22.37-22.37 22.37h-82.02z" fill="#ffd298"/><path d="m342.017 97.4v2.26c0 34.95-28.44 63.39-63.39 63.39v-163.05l48.13 56.15c9.84 11.48 15.26 26.13 15.26 41.25z" fill="#00959a"/><path d="m278.627 0v163.05c-34.95 0-63.39-28.44-63.39-63.39v-2.26c0-15.12 5.42-29.77 15.26-41.25z" fill="#00ccb2"/><path d="m484.967 386.647-19.33 16.14-146.55 102.78-4.92 3.23-35.54.06v-74.43h.21l3.69-2.42 158.13-103.43c16.81-10.99 39.2-6.86 50.98 9.41 1.48 2.04 2.74 4.21 3.77 6.45 5.96 14.51 2.09 31.76-10.44 42.21z" fill="#ffd298"/><path d="m278.627 434.427v74.43l-81.48.13h-66.92l-119.3.09v-87.09l103.54-62.12h142.51c12.33 0 22.37 10.03 22.37 22.37 0 12.33-10.04 22.36-22.37 22.36h-82.02v29.83z" fill="#ffe3c1"/><path d="m183.724 181.775v2.8c0 41.35-33.64 75-75 75v-193.05l56.94 66.44c11.65 13.58 18.06 30.91 18.06 48.81z" fill="#00b5bc"/><path d="m108.724 66.525v193.05c-41.36 0-75-33.65-75-75v-2.8c0-17.9 6.41-35.23 18.06-48.81z" fill="#00eecf"/></g></svg>