<svg id="Capa_1" enable-background="new 0 0 510 510" height="512" viewBox="0 0 510 510" width="512" xmlns="http://www.w3.org/2000/svg"><g><path d="m510 89.87v30.13h-89.87v-120c49.56 0 89.87 40.31 89.87 89.87z" fill="#edae80"/><path d="m420.13 0v120h-89.87v-30.13c0-49.56 40.32-89.87 89.87-89.87z" fill="#ffe3c1"/><path d="m420.13 105v402.62c-7.45 1.56-15.17 2.38-23.08 2.38h-317.05v-165h250v-240z" fill="#f1f6f7"/><path d="m510 105v292.06c0 54.36-38.62 99.89-89.87 110.56v-402.62z" fill="#dceaec"/><path d="m510 264.8v35.79l-89.87-62.91v-132.68h14.53v107.06z" fill="#c0d9dd"/><path d="m420.13 105v132.68l-90.13-63.09v-35.79l75.34 52.74v-86.54z" fill="#dceaec"/><path d="m510 362.06v35c0 .53-.01 1.07-.02 1.6l-89.85-62.89v-36.62z" fill="#c0d9dd"/><path d="m420.13 299.15v36.62l-90.13-63.09v-36.62z" fill="#dceaec"/><path d="m498 447.68c-4.54 9.01-10.25 17.33-16.93 24.77l-57.74-39.98-3.2 4.95v-43.65z" fill="#c0d9dd"/><path d="m420.13 393.77v43.65l-46.97 72.58h-35.73l61.22-94.61-34.46-23.86-86.57 118.47h-37.16l99.06-135.55-41.12-28.47-121.69 164.02h-37.35l122.41-165h68.23v-13.63z" fill="#dceaec"/><path d="m163.642 323.743c-11.949-23.897-35.969-38.743-62.688-38.743h-37.245c-18.587 0-33.709 15.122-33.709 33.709v116.291h91.467c32.275 0 58.533-26.258 58.533-58.533v-20.008z" fill="#ffd298"/><path d="m70 345h-32.302c-20.787 0-37.698 16.911-37.698 37.698v82.863c0 24.503 19.936 44.439 44.439 44.439h65.561v-125c0-22.056-17.944-40-40-40z" fill="#ffe3c1"/></g></svg>