<svg id="Capa_1" enable-background="new 0 0 510.07 510.07" height="512" viewBox="0 0 510.07 510.07" width="512" xmlns="http://www.w3.org/2000/svg"><g><path d="m410.917 92.476-65.717 47.696 90.069 178.848c29.75 59.04 27.76 128.45-5.32 185.68l-.51.82-3.03 4.55h-140.03l-18.275-231.264 18.275-278.726.13-.08 86.15.07z" fill="#00959a"/><path d="m286.379.08v509.99h-114.56v-42.12c-23.56-6.53-45.52-18.34-64.16-34.78l-1.38-1.22c-34.96-30.84-55.01-75.27-55.01-121.89 0-1.23.02-2.46.04-3.68.27-11.66 1.85-23.13 4.64-34.23l44.32-32.09 12.41-54.63c7.15-5.57 14.82-10.59 22.96-14.96l4.82-2.59c12.48-6.7 25.78-11.78 39.51-15.14-8.54-11-13.63-24.8-13.63-39.77 0-21.77 10.82-41.98 28.94-54.06l.18-.12z" fill="#00ccb2"/><path d="m170.219 196.97-57.641-11.542-5.579 4.778c-15.081 12.918-27.858 28.281-37.296 45.333-5.325 9.621-9.317 19.92-12.143 30.547l-1.613 6.066 16.051 3.671 48.702 11.936 52.001-32.685z" fill="#ffe3c1"/><path d="m456.459 93.02-13.96 57.4-39.3 148.47c-3.7 13.99-12.58 25.78-24.98 33.22-8.67 5.2-18.41 7.87-28.3 7.87-4.25 0-8.53-.5-12.77-1.5l-50.77-12-13.043-49.256 13.043-56.144 31.76 6.52 31.86-133.81 22.66-93.72h11.8c23.11 0 44.48 10.45 58.63 28.67 14.22 18.31 19.09 41.73 13.37 64.28z" fill="#00b5bc"/><path d="m286.379 221.08v105.4l-142.84-33.76-22.84-4.96 49.52-90.79 14.07 3.17z" fill="#00eecf"/></g></svg>