<svg id="Capa_1" enable-background="new 0 0 510 510" height="512" viewBox="0 0 510 510" width="512" xmlns="http://www.w3.org/2000/svg"><g><path d="m194.53 0c-24.55 0-44.53 19.98-44.53 44.53v15.47h-8.29c-36.78 0-66.71 29.93-66.71 66.71v53.93c-25.46 3.98-45 26.05-45 52.61v43.5c0 26.56 19.54 48.63 45 52.61v53.93c0 36.78 29.93 66.71 66.71 66.71h13.29v19.95c0 22.08 17.97 40.05 40.05 40.05h59.95v-510z" fill="#ffe3c1"/><path d="m255 0h60.47c24.55 0 44.53 19.98 44.53 44.53v15.47h13.91c36.79 0 66.71 29.93 66.71 66.71v55.13c22.66 6.12 39.38 26.85 39.38 51.41v43.5c0 24.56-16.72 45.29-39.38 51.41v55.13c0 36.78-29.92 66.71-66.71 66.71h-18.91v19.95c0 22.08-17.97 40.05-40.05 40.05h-59.95" fill="#ffd298"/><path d="m194.53 0c-24.55 0-44.53 19.98-44.53 44.53v15.47h-8.29c-36.78 0-66.71 29.93-66.71 66.71v53.93c-25.46 3.98-45 26.05-45 52.61v43.5c0 26.56 19.54 48.63 45 52.61v53.93c0 36.78 29.93 66.71 66.71 66.71h13.29v19.95c0 22.08 17.97 40.05 40.05 40.05h59.95v-510zm60.47 360h-120v30h120zm0-120h-157.5v30h157.5zm0-120h-120v30h120zm0 360h-59.95c-5.54 0-10.05-4.51-10.05-10.05v-19.95h25v-30h-68.29c-20.24 0-36.71-16.47-36.71-36.71v-53.29h105v-30h-126.75c-12.82 0-23.25-10.43-23.25-23.25v-43.5c0-12.82 10.43-23.25 23.25-23.25h126.75v-30h-105v-53.29c0-20.24 16.47-36.71 36.71-36.71h68.29v-30h-30v-15.47c0-8.01 6.52-14.53 14.53-14.53h60.47" fill="#ffd298"/><path d="m255 30h60.47c8.01 0 14.53 6.52 14.53 14.53v15.47h-30v30h73.91c20.25 0 36.71 16.47 36.71 36.71v53.29h-110.62v30h126.75c12.82 0 23.25 10.43 23.25 23.25v43.5c0 12.82-10.43 23.25-23.25 23.25h-126.75v30h110.62v53.29c0 20.24-16.46 36.71-36.71 36.71h-73.91v30h25v19.95c0 5.54-4.51 10.05-10.05 10.05h-59.95v30h59.95c22.08 0 40.05-17.97 40.05-40.05v-19.95h18.91c36.79 0 66.71-29.93 66.71-66.71v-55.13c22.66-6.12 39.38-26.85 39.38-51.41v-43.5c0-24.56-16.72-45.29-39.38-51.41v-55.13c0-36.78-29.92-66.71-66.71-66.71h-13.91v-15.47c0-24.55-19.98-44.53-44.53-44.53h-60.47zm0 120h120v-30h-120zm0 120h157.5v-30h-157.5zm0 120h120v-30h-120z" fill="#ff936a"/></g></svg>