<svg id="Capa_1" enable-background="new 0 0 510 510" height="512" viewBox="0 0 510 510" width="512" xmlns="http://www.w3.org/2000/svg"><g><path d="m480 405v42.92c0 34.23-27.85 62.08-62.08 62.08h-162.92v-105l140-55.582z" fill="#dceaec"/><path d="m255 209.96v300.04h-127.57l-97.43-34.39v-129.36c0-33.81 19.68-65.16 50.13-79.87l105.9-51.12z" fill="#dceaec"/><path d="m150 405h-89.571c-16.806 0-30.429 13.623-30.429 30.429v44.143c0 16.805 13.623 30.428 30.429 30.428h89.571z" fill="#ffe3c1"/><path d="m100 330h50v30h-50z" fill="#0a789b"/><path d="m480 343.5v61.5h-165v-179.45l-1.96-20.06 10.28-.79 110.84 61.15c28.27 15.6 45.84 45.36 45.84 77.65z" fill="#c0d9dd"/><path d="m255 405v105h-127.57l-7.43-2.62v-102.38z" fill="#f7f9fa"/><path d="m315 230v175h-60v-172.5z" fill="#00b5bc"/><path d="m255 232.5v172.5h-60v-170z" fill="#00eecf"/><path d="m360 105v60c0 57.9-47.1 105-105 105v-270c57.9 0 105 47.1 105 105z" fill="#ffd298"/><path d="m255 0v270c-57.9 0-105-47.1-105-105v-60c0-57.9 47.1-105 105-105z" fill="#ffe3c1"/><path d="m360 105v20h-15c-17.14 0-48.68-2.34-78.28-16.99-3.99 3.23-7.87 6.28-11.72 9.12v-117.13c57.9 0 105 47.1 105 105z" fill="#8e4813"/><path d="m255 0v117.13c-23.78 17.63-46.39 27.87-85 27.87h-20v-40c0-57.9 47.1-105 105-105z" fill="#c37e4e"/><path d="m370.363 319.692h-55.363v85.308h55.363c13.606 0 24.637-11.031 24.637-24.637v-36.033c0-13.607-11.031-24.638-24.637-24.638z" fill="#ffd298"/></g></svg>