<svg id="Capa_1" enable-background="new 0 0 510 510" height="512" viewBox="0 0 510 510" width="512" xmlns="http://www.w3.org/2000/svg"><g><path d="m0 60h255v390h-255z" fill="#00eecf"/><path d="m255 60h255v390h-255z" fill="#00b5bc"/><path d="m170 128.35v326.65c0 30.33-24.67 55-55 55v-361.02z" fill="#c0d9dd"/><path d="m115 148.98v361.02c-30.33 0-55-24.67-55-55v-285.4z" fill="#dceaec"/><path d="m170 266.24v32.14l-55 21.16v-32.15z" fill="#dceaec"/><path d="m115 287.39v32.15l-55 21.15v-32.15z" fill="#f7f9fa"/><path d="m170 73.06v87.34l-55 20.63v-178.77c31.58 8.06 55 36.74 55 70.8z" fill="#dceaec"/><path d="m115 2.26v178.77l-55 20.62v-201.65h36.94c6.23 0 12.28.78 18.06 2.26z" fill="#f7f9fa"/><path d="m510 435c0 41.36-33.64 75-75 75-24.51 0-46.31-11.82-60-30.05v-465.87c44.41 22.13 75 68.02 75 120.92v226.51c34.19 6.97 60 37.27 60 73.49z" fill="#c0d9dd"/><path d="m375 14.08v195.92l-33.956 30-41.044-30v-210h15c21.54 0 41.91 5.07 60 14.08z" fill="#cee1e4"/><path d="m375 479.95v-269.95h-75l-.002 151.507c-34.189 6.969-59.998 37.274-59.998 73.495 0 41.354 33.644 74.998 75.004 74.998 24.505 0 46.302-11.817 59.996-30.05z" fill="#e5eaee"/><path d="m300 420h30v30h-30z" fill="#00b5bc"/><path d="m420 420h30v30h-30z" fill="#00959a"/><path d="m360 150h15v30h-15z" fill="#00b5bc"/><path d="m375 150h15v30h-15z" fill="#00959a"/><path d="m170 196.24v32.14l-55 21.16v-32.15z" fill="#dceaec"/><path d="m115 217.39v32.15l-55 21.15v-32.15z" fill="#f7f9fa"/></g></svg>