<svg id="Capa_1" enable-background="new 0 0 510 510" height="512" viewBox="0 0 510 510" width="512" xmlns="http://www.w3.org/2000/svg"><g><path d="m510 336.92v31.7c0 31.09-25.29 56.38-56.38 56.38s-56.38-25.29-56.38-56.38v-19.56c0-12.26-9.98-22.24-22.24-22.24-1.72 0-3.39.2-5 .57v-228.98c1.71 1.12 3.38 2.31 5 3.56 14.12-10.91 31.56-16.97 49.66-16.97.79 0 1.59.01 2.38.03 25.04.73 47.58 13.09 61.84 33.9 14.21 20.74 17.75 47.2 9.52 70.89l-12.11 42.4c18.59 31.29 23.71 79.68 23.71 104.7z" fill="#9ab8c2"/><path d="m370 98.41v228.98c-9.86 2.27-17.24 11.13-17.24 21.67v19.56c0 31.09-25.29 56.38-56.38 56.38s-56.38-25.29-56.38-56.38v-187.85c0-25.37 7.81-48.85 21.98-66.11 15.11-18.4 36.77-28.92 60.98-29.63.79-.02 1.59-.03 2.38-.03 16.02 0 31.52 4.75 44.66 13.41z" fill="#c0d9dd"/><path d="m270 185.54v183.08c0 31.09-25.29 56.38-56.38 56.38s-56.38-25.29-56.38-56.38v-19.56c0-12.26-9.98-22.24-22.24-22.24v-224.85c14.12-10.91 31.56-16.97 49.66-16.97.79 0 1.59.01 2.38.03 22.27.65 42.07 9.63 57.25 25.99 17.55 18.89 26.91 46.04 25.71 74.52z" fill="#dceaec"/><path d="m135 101.97v224.85c-12.26 0-22.24 9.98-22.24 22.24v19.56c0 31.09-25.29 56.38-56.38 56.38s-56.38-25.29-56.38-56.38v-24.38c0-34.45 5.98-81.15 19.26-111.33l-10.41-47.32c-6.34-23.82-1.54-48.82 13.18-68.65 14.53-19.58 36.74-31.21 60.93-31.91.79-.02 1.59-.03 2.38-.03 18.1 0 35.54 6.06 49.66 16.97z" fill="#f7f9fa"/><path d="m135 205v-30h-45v30h-76.88l6.14 27.91c-.3.69-.6 1.39-.89 2.09h71.63v30h45v-30h-15v-30z" fill="#0a789b"/><path d="m270 205v30h-90v30h-45v-30h15v-30h-15v-30h45v30z" fill="#0a617d"/><path d="m370 205v-30h-45v30h-54.9v30h54.9v30h45v-30h-15v-30z" fill="#0a617d"/><path d="m486.29 232.22c.55.91 1.07 1.84 1.59 2.78h-72.88v30h-45v-30h15v-30h-15v-30h45v30h79.07z" fill="#08475e"/></g></svg>