<svg id="Capa_1" enable-background="new 0 0 510 510" height="512" viewBox="0 0 510 510" width="512" xmlns="http://www.w3.org/2000/svg"><g><path d="m330 33.56v161.44h-75v-195h41.44c18.5 0 33.56 15.06 33.56 33.56z" fill="#08475e"/><path d="m255 0v195h-75v-161.44c0-18.5 15.06-33.56 33.56-33.56z" fill="#0a789b"/><path d="m255 60h15v30h-15z" fill="#c0d9dd"/><path d="m240 60h15v30h-15z" fill="#f7f9fa"/><path d="m510 206.95v261.1c0 23.13-18.82 41.95-41.95 41.95h-213.05v-345h213.05c23.13 0 41.95 18.82 41.95 41.95z" fill="#dceaec"/><path d="m255 165v345h-213.05c-23.13 0-41.95-18.82-41.95-41.95v-261.1c0-23.13 18.82-41.95 41.95-41.95z" fill="#f7f9fa"/><g fill="#00eecf"><path d="m150 255h-30v-30h-30v30h-30v30h30v30h30v-30h30z"/><path d="m60 345h90v30h-90z"/><path d="m60 405h135v30h-135z"/></g><path d="m468.049 165h-213.049v205.723c0 26.773 21.782 48.555 48.555 48.555h206.445v-212.328c0-23.132-18.819-41.95-41.951-41.95z" fill="#00b5bc"/><path d="m432.698 338.054-32.062-28.054h-51.272l-32.062 28.054c-10.995 9.621-17.302 23.518-17.302 38.13v43.816h150v-43.816c0-14.612-6.307-28.509-17.302-38.13z" fill="#00eecf"/><path d="m375 225c-27.57 0-50 22.43-50 50v20c0 27.57 22.43 50 50 50s50-22.43 50-50v-20c0-27.57-22.43-50-50-50z" fill="#ffe3c1"/></g></svg>