<svg id="Capa_1" enable-background="new 0 0 510 510" height="512" viewBox="0 0 510 510" width="512" xmlns="http://www.w3.org/2000/svg"><g><path d="m170.41 61.934v58.59l-7.5 7.385-7.5-7.385-8.212-41.407 8.212-51.314c9.22 8.48 15 20.64 15 34.131z" fill="#00b5bc"/><path d="m155.41 27.803v107.72h-65.71v-120h34.3c12.11 0 23.14 4.65 31.41 12.28z" fill="#00eecf"/><path d="m402.907 222.732h-66.803v69.022l59.203 24.293 59.203-24.244v-17.467c0-28.454-23.149-51.604-51.603-51.604z" fill="#00959a"/><path d="m454.51 358.809-13.614 11.868-16.386-11.868v-37.006h-136.719v-30h166.719z" fill="#08475e"/><path d="m365 150.523v141.23h-209.59v-141.23l109.414-15z" fill="#00b5bc"/><path d="m155.41 150.523v141.23h-84.07v-141.23l44.473-15z" fill="#00eecf"/><path d="m402.91 120.523v30h-247.5l-15.597-13.912 15.597-16.088z" fill="#08475e"/><path d="m101.337 120.523v-105h-101.337v30h71.337v105h.003 29.997 54.073v-30z" fill="#0a617d"/><path d="m365 218.198h-133.02l-70.817-30h203.837z" fill="#00ccb2"/><path d="m293.55 341.333c0 76.3-61.85 138.14-138.14 138.14l-10.322-138.137 10.322-138.144c76.29.001 138.14 61.851 138.14 138.141z" fill="#dceaec"/><path d="m155.41 203.193v276.28c-76.3 0-138.14-61.84-138.14-138.14 0-76.29 61.84-138.14 138.14-138.14z" fill="#f1f6f7"/><path d="m155.41 218.193 5.753-14.872-5.753-15.128c-84.44 0-153.14 68.7-153.14 153.14s68.7 153.14 153.14 153.14l7.5-15-7.5-15c-67.9 0-123.14-55.24-123.14-123.14 0-67.89 55.24-123.14 123.14-123.14z" fill="#0a789b"/><path d="m308.55 341.333c0 84.44-68.7 153.14-153.14 153.14v-30c67.9 0 123.14-55.24 123.14-123.14 0-67.89-55.24-123.14-123.14-123.14v-15-15c84.44 0 153.14 68.701 153.14 153.14z" fill="#08475e"/><path d="m155.407 356.337h-15v-30h15l5.756 15z" fill="#0a789b"/><path d="m155.41 326.337h15v30h-15z" fill="#08475e"/><path d="m440.896 494.477c-38.104 0-69.104-31-69.104-69.104s31-69.104 69.104-69.104 69.104 31 69.104 69.104-31 69.104-69.104 69.104zm0-108.209c-21.562 0-39.104 17.542-39.104 39.104s17.542 39.104 39.104 39.104 39.104-17.541 39.104-39.104-17.542-39.104-39.104-39.104z" fill="#08475e"/><circle cx="440.896" cy="425.372" fill="#dceaec" r="49.349"/></g></svg>