<svg id="Capa_1" enable-background="new 0 0 510 510" height="512" viewBox="0 0 510 510" width="512" xmlns="http://www.w3.org/2000/svg"><g><path d="m120 150v31.554l135 28.446 15-40.451-15-49.549z" fill="#c0d9dd"/><path d="m255 120v90l135-28.446v-31.554z" fill="#9ab8c2"/><path d="m420 221.18v33.82l-35 90 35 90v75h-165l-15-165 15-165h123.82c22.71 0 41.18 18.47 41.18 41.18z" fill="#dceaec"/><path d="m255 180v330h-165v-75l30-90-30-90v-33.82c0-22.71 18.47-41.18 41.18-41.18z" fill="#f1f6f7"/><path d="m90 0v150h165l30-75-30-75z" fill="#0a789b"/><path d="m255 0h165v150h-165z" fill="#08475e"/><path d="m150 0h30v150h-30z" fill="#0a617d"/><path d="m210 0h30v150h-30z" fill="#0a617d"/><path d="m270 0h30v150h-30z" fill="#05303d"/><path d="m330 0h30v150h-30z" fill="#05303d"/><path d="m420 255v180h-165l-19.187-78.462 19.187-101.538z" fill="#00b5bc"/><path d="m90 255h165v180h-165z" fill="#00eecf"/><path d="m360 345c0 24.81-20.19 45-45 45h-60l-15-45 15-45h60c24.81 0 45 20.19 45 45z" fill="#c40048"/><path d="m255 300v90h-60c-24.81 0-45-20.19-45-45s20.19-45 45-45z" fill="#f1f6f7"/></g></svg>