<svg id="Capa_1" enable-background="new 0 0 510 510" height="512" viewBox="0 0 510 510" width="512" xmlns="http://www.w3.org/2000/svg"><g><path d="m390 200v191.116l42.821-24.979c29.101-16.975 47.179-48.449 47.179-82.139v-83.998z" fill="#edae80"/><path d="m30 287.136c0 31.867 15.83 61.444 42.345 79.121l47.655 31.771v-198.028h-90z" fill="#ffd298"/><path d="m480 153.46v81.36l-225 .09v-234.91h71.54c84.62 0 153.46 68.84 153.46 153.46z" fill="#ff4a4a"/><path d="m255 0v234.91l-225 .09v-81.54c0-84.62 68.84-153.46 153.46-153.46z" fill="#ff936a"/><path d="m420 175.85v169.15c0 90.98-74.02 165-165 165v-407.73c34.16 0 68.32-3.95 101.53-11.86l10.68-2.55z" fill="#ffd298"/><path d="m255 102.27v407.73c-90.98 0-165-74.02-165-165v-169.15l52.79-87.99 10.68 2.55c33.21 7.91 67.37 11.86 101.53 11.86z" fill="#ffe3c1"/><path d="m180 180h30v40h-30z" fill="#0a789b"/><path d="m300 180h30v40h-30z" fill="#08475e"/><path d="m420 272.97v72.03c0 90.98-74.02 165-165 165v-265.03c16.99-.05 33.99 1.56 50.88 4.83l.13.03z" fill="#00b5bc"/><path d="m255 244.97v265.03c-90.98 0-165-74.02-165-165v-72.06l114.09-22.82c16.89-3.38 33.9-5.1 50.91-5.15z" fill="#00eecf"/><path d="m420 330v15c0 5.06-.24 10.06-.69 15h-164.31v-30z" fill="#00959a"/><path d="m255 330v30h-164.31c-.45-4.94-.69-9.94-.69-15v-15z" fill="#00ccb2"/><path d="m413.76 390c-2.97 10.46-6.94 20.49-11.81 30h-146.95v-30z" fill="#00959a"/><path d="m255 390v30h-146.95c-4.87-9.51-8.84-19.54-11.81-30z" fill="#00ccb2"/></g></svg>