<svg id="Capa_1" enable-background="new 0 0 511.88 511.88" height="512" viewBox="0 0 511.88 511.88" width="512" xmlns="http://www.w3.org/2000/svg"><g><path d="m245 98.67 10.94 16.226-10.94 13.774h-68.23c-3.73 0-6.77 3.04-6.77 6.77v43.23h-30v-43.23c0-20.27 16.5-36.77 36.77-36.77z" fill="#dceaec"/><path d="m245 285.06-80.76-63.2-18.48 23.62 74.9 58.62-120.83 94.57h-14.83v30h160l10.94-12.833-10.94-17.167h-96.5l96.5-75.52 10.94-19.155z" fill="#c0d9dd"/><path d="m430 398.67v30h-185v-30h96.5l-85.56-66.96-10.94-8.56v-38.09l10.94-8.56 69.82-54.64 18.48 23.62-74.9 58.62 120.83 94.57z" fill="#9ab8c2"/><path d="m395 98.67v30h-120v45h-30v-75z" fill="#c0d9dd"/><path d="m511.88 115.7-133 102.97-133.88 9.56-14.785-34.79 14.785-34.77h64.85l142.03-110.46z" fill="#c40048"/><path d="m245 158.67v69.56l-59.03 5.44-185.97-15v-60z" fill="#ff4a4a"/><path d="m50 463.67c-27.57 0-50-22.43-50-50s22.43-50 50-50 50 22.43 50 50-22.43 50-50 50zm0-70c-11.028 0-20 8.972-20 20s8.972 20 20 20 20-8.972 20-20-8.972-20-20-20z" fill="#0a789b"/><path d="m460 463.67c-27.57 0-50-22.43-50-50s22.43-50 50-50 50 22.43 50 50-22.43 50-50 50zm0-70c-11.028 0-20 8.972-20 20s8.972 20 20 20 20-8.972 20-20-8.972-20-20-20z" fill="#08475e"/><path d="m510 218.67v30h-265l-10.829-15 10.829-15z" fill="#dceaec"/><path d="m0 218.67h245v30h-245z" fill="#f7f9fa"/></g></svg>