<svg id="Capa_1" enable-background="new 0 0 510 510" height="512" viewBox="0 0 510 510" width="512" xmlns="http://www.w3.org/2000/svg"><g><path d="m135.151 82c-29.557 0-56.396 17.445-68.398 44.452l-66.753 147.308v124.954c0 27.832 11.143 54.062 31.375 73.856 20.057 19.623 46.458 30.43 74.339 30.43 57.504 0 104.286-46.782 104.286-104.286v-241.865c0-41.272-33.577-74.849-74.849-74.849z" fill="#ff936a"/><path d="m443.247 126.452c-12.002-27.007-38.842-44.452-68.399-44.452-41.271 0-74.848 33.577-74.848 74.849v241.865c0 57.504 46.782 104.286 104.286 104.286 27.882 0 54.283-10.807 74.339-30.43 20.232-19.795 31.375-46.024 31.375-73.856v-124.954z" fill="#ff4a4a"/><path d="m263.823 229.131-8.823-12.131v-210h-75v89.963c18.202 13.667 30 35.423 30 59.885v74.332l-19.13 13.913-41.3 33.357-48.182-56.212-22.777 19.523 47.611 55.546-65.648 53.023 18.851 23.338 22.902-18.498 20.959 26.199 23.426-18.74-21.047-26.309 83.464-67.413z" fill="#ff4a4a"/><path d="m383.778 297.308 47.611-55.546-22.777-19.523-48.182 56.211-41.005-33.119-.295-.238-19.13-13.913v-74.332c0-24.462 11.798-46.219 30-59.886v-89.962h-75v210 18.547l45.871 33.361 83.464 67.413-21.047 26.309 23.426 18.74 20.959-26.199 22.902 18.498 18.851-23.338z" fill="#c40048"/></g></svg>