<svg id="Capa_1" enable-background="new 0 0 510 510" height="512" viewBox="0 0 510 510" width="512" xmlns="http://www.w3.org/2000/svg"><g><path d="m274.408 70c-19.005 0-34.412 15.407-34.412 34.412v170.588h68.824v-170.588c0-19.005-15.407-34.412-34.412-34.412z" fill="#00ccb2"/><path d="m455 480v30h-77.35v-13.879-16.121l36.383-30z" fill="#edae80"/><path d="m377.65 480v30h-122.65l-16.022-15.462 16.022-14.538 71.407-30z" fill="#ffd298"/><path d="m510 200v141.51c0 18.3-4.24 30.78-11.56 46.15l-43.44 92.34h-77.35v-280z" fill="#00b5bc"/><path d="m377.65 200v280h-122.65v-40l12.066-83.989 62.934-62.491v-73.39c0-7.06-1.23-13.83-3.48-20.13z" fill="#00c6cd"/><path d="m165 410h90v100h-90z" fill="#ffe3c1"/><path d="m330 220.13v73.39c0 22.03-5.79 39.71-19.98 60.99l-55.02 85.49h-90v-280h105c33.1.07 60 27.02 60 60.13z" fill="#46f7ff"/><path d="m478.235 107.484c-17.543 0-31.765 14.222-31.765 31.765v135.751h63.53v-135.752c0-17.543-14.222-31.764-31.765-31.764z" fill="#007579"/><path d="m412.059 70c-19.005 0-34.412 15.407-34.412 34.412v170.588h68.824v-170.588c0-19.005-15.407-34.412-34.412-34.412z" fill="#00959a"/><path d="m345 40.04c-.58-.03-1.17-.04-1.76-.04-19.01 0-34.42 15.41-34.42 34.41v200.59h36.18 32.65v-200.59c0-18.41-14.47-33.45-32.65-34.37z" fill="#00b5bc"/><path d="m55 410h110v100h-110z" fill="#fff1dd"/><path d="m165 160v280h-109.47l-43.97-92.34c-7.32-15.37-11.56-27.85-11.56-46.15v-141.51z" fill="#a9fff2"/><path d="m31.765 67.484c17.543 0 31.765 14.222 31.765 31.765v135.751h-63.53v-135.752c0-17.543 14.222-31.764 31.765-31.764z" fill="#7affe6"/><path d="m97.941 30c19.005 0 34.412 15.407 34.412 34.412v170.588h-68.824v-170.588c0-19.005 15.407-34.412 34.412-34.412z" fill="#00eecf"/><path d="m201.18 34.41v200.59h-36.18v-234.96c.58-.03 1.17-.04 1.76-.04 19.01 0 34.42 15.41 34.42 34.41z" fill="#00b5bc"/><path d="m165 .04v234.96h-32.65v-200.59c0-18.41 14.47-33.45 32.65-34.37z" fill="#00ccb2"/><path d="m235.588 30c19.005 0 34.412 15.407 34.412 34.412v170.588h-68.824v-170.588c0-19.005 15.407-34.412 34.412-34.412z" fill="#00c6cd"/><path d="m330 295h-60v-135h6.088c29.775 0 53.912 24.137 53.912 53.912z" fill="#00d6de"/></g></svg>