<svg id="Capa_1" enable-background="new 0 0 505 505" height="512" viewBox="0 0 505 505" width="512" xmlns="http://www.w3.org/2000/svg"><g><path d="m367.5 460h15v45h-15z" fill="#00959a"/><g fill="#00ccb2"><path d="m352.5 460h15v45h-15z"/><path d="m257.5 375h45v30h-45z"/><path d="m290 307.751h30v49.497h-30z" transform="matrix(.707 -.707 .707 .707 -145.781 313.055)"/></g><path d="m417.5 438.787h30v42.426h-30z" fill="#00959a" transform="matrix(.707 -.707 .707 .707 -198.593 440.555)"/><path d="m432.5 375h45v30h-45z" fill="#00959a"/><path d="m281.287 440h42.426v30h-42.426z" fill="#00ccb2" transform="matrix(.707 -.707 .707 .707 -233.133 347.166)"/><path d="m406.287 315h42.426v30h-42.426z" fill="#00959a" transform="matrix(.707 -.707 .707 .707 -108.133 398.943)"/><path d="m367.5 285h15v45h-15z" fill="#00959a"/><path d="m352.5 285h15v45h-15z" fill="#00ccb2"/><path d="m133.159 316.233h40.001v15.005h-40.001z" fill="#ffd944" transform="matrix(.707 -.707 .707 .707 -184.035 203.062)"/><path d="m41.234 408.158h40.001v15.005h-40.001z" fill="#ffd944" transform="matrix(.707 -.707 .707 .707 -276.025 165.104)"/><path d="m91.29 417.43-28.29 28.28-10.6-10.6 28.28-28.29z" fill="#ff9000"/><path d="m183.21 325.5-28.28 28.29-10.61-10.61 28.29-28.28z" fill="#ff9000"/><path d="m143.462 400.962h30v40.001h-30z" fill="#ff9000" transform="matrix(.707 -.707 .707 .707 -251.249 235.339)"/><path d="m51.538 309.038h30v40.001h-30z" fill="#ffd944" transform="matrix(.707 -.707 .707 .707 -213.173 143.418)"/><path d="m432.5 115h60v30h-60z" fill="#c40048"/><path d="m12.5 115h60v30h-60z" fill="#ff4a4a"/><path d="m252.5 200h15v60h-15z" fill="#c40048"/><path d="m237.5 200h15v60h-15z" fill="#ff4a4a"/><path d="m177.5 200h30v60h-30z" fill="#ff4a4a"/><path d="m297.5 200h30v60h-30z" fill="#c40048"/><path d="m419.357 165.947h30v61.82h-30z" fill="#c40048" transform="matrix(.707 -.707 .707 .707 -11.978 364.797)"/><path d="m361.684 194.71h30v60.581h-30z" fill="#c40048" transform="matrix(.99 -.138 .138 .99 -27.467 54.186)"/><path d="m33.698 179.357h68.891v30h-68.891z" fill="#ff4a4a" transform="matrix(.707 -.707 .707 .707 -117.472 105.11)"/><path d="m96.394 210h60.581v30h-60.581z" fill="#ff4a4a" transform="matrix(.138 -.99 .99 .138 -113.66 319.385)"/><path d="m252.5 0h16.29v60h-16.29z" fill="#c40048"/><path d="m238.79 0h13.71v60h-13.71z" fill="#ff4a4a"/><path d="m298.787 0h30v60h-30z" fill="#c40048"/><path d="m178.787 0h30v60h-30z" fill="#ff4a4a"/><path d="m56.93 32.234h30v61.819h-30z" fill="#ff4a4a" transform="matrix(.707 -.707 .707 .707 -23.581 69.357)"/><path d="m114.603 4.71h30v60.581h-30z" fill="#ff4a4a" transform="matrix(.99 -.138 .138 .99 -3.592 18.237)"/><path d="m403.698 50.644h68.891v30h-68.891z" fill="#c40048" transform="matrix(.707 -.707 .707 .707 81.912 329.041)"/><path d="m349.312 20h60.581v30h-60.581z" fill="#c40048" transform="matrix(.138 -.99 .99 .138 292.496 406.127)"/><path d="m447.5 130c0 49.63-40.37 90-90 90h-105v-180h105c49.63 0 90 40.37 90 90z" fill="#ff4a4a"/><path d="m252.5 40v180h-105c-49.63 0-90-40.37-90-90s40.37-90 90-90z" fill="#ff936a"/><path d="m117.5 115h30v30h-30z" fill="#ff4a4a"/><path d="m357.5 115h30v30h-30z" fill="#c40048"/><path d="m262.5 70h30v30h-30z" fill="#c40048"/><path d="m182.5 100h30v30h-30z" fill="#ff4a4a"/><path d="m292.5 130h30v30h-30z" fill="#c40048"/><path d="m212.5 160h30v30h-30z" fill="#ff4a4a"/><path d="m447.5 395c0 21.37-8.32 41.46-23.43 56.57-15.6 15.59-36.08 23.39-56.57 23.39l-7.5-78.75 7.5-81.17c20.49 0 40.98 7.8 56.57 23.39 15.11 15.11 23.43 35.2 23.43 56.57z" fill="#00b5bc"/><path d="m367.5 315.04v159.92c-20.49 0-40.97-7.8-56.57-23.39-15.11-15.11-23.43-35.2-23.43-56.57s8.32-41.46 23.43-56.57c15.59-15.59 36.08-23.39 56.57-23.39z" fill="#00eecf"/><path d="m154.926 417.426c-23.391 23.391-61.462 23.391-84.853 0l84.853-84.853c23.392 23.392 23.392 61.462 0 84.853z" fill="#ffd944"/><path d="m154.926 332.574-84.853 84.853c-23.391-23.391-23.391-61.462 0-84.853 23.392-23.392 61.462-23.392 84.853 0z" fill="#ffe377"/><path d="m352.5 380h15v30h-15z" fill="#00b5bc"/><path d="m367.5 380h15v30h-15z" fill="#00959a"/></g></svg>