<svg id="Capa_1" enable-background="new 0 0 510 510" height="512" viewBox="0 0 510 510" width="512" xmlns="http://www.w3.org/2000/svg"><g><path d="m400 285h-15v120c0 41.35-33.64 75-75 75h-75c-41.36 0-75-33.65-75-75h-30c0 57.9 47.1 105 105 105h75c38.16 0 71.63-20.46 90-50.98 9.52-15.79 15-34.28 15-54.02v-120z" fill="#00eecf"/><path d="m145 285h-54.6l-4.42-11.76c-23.87-63.68-35.98-130.44-35.98-198.44 0-8.16 6.64-14.8 14.8-14.8h20.2v30h30v-90h-30v30h-20.2c-24.7 0-44.8 20.1-44.8 44.8 0 71.61 12.75 141.92 37.89 208.97l11.71 31.23h.06l27.42 71.98c7.53 19.75 26.78 33.02 47.92 33.02v-30c-8.77 0-16.76-5.51-19.88-13.7l-23.35-61.3h43.23z" fill="#e5eaee"/><path d="m270 74.8c0 71.61-12.75 141.92-37.89 208.97l-11.71 31.23h-.06l-27.42 71.98c-7.53 19.75-26.78 33.02-47.92 33.02v-30c8.77 0 16.76-5.51 19.88-13.7l23.35-61.3h-43.23v-30h54.6l4.42-11.76c23.87-63.68 35.98-130.44 35.98-198.44 0-8.16-6.64-14.8-14.8-14.8h-20.2v30h-30v-90h30v30h20.2c24.7 0 44.8 20.1 44.8 44.8z" fill="#c0d9dd"/><path d="m490 210c0 49.63-40.37 90-90 90v-180c49.63 0 90 40.37 90 90z" fill="#fc0"/><path d="m400 120v180c-49.63 0-90-40.37-90-90s40.37-90 90-90z" fill="#ffe377"/><path d="m385 195h15v30h-15z" fill="#fc0"/><path d="m400 195h15v30h-15z" fill="#ff9000"/></g></svg>