<svg id="Capa_1" enable-background="new 0 0 510.86 510.86" height="512" viewBox="0 0 510.86 510.86" width="512" xmlns="http://www.w3.org/2000/svg"><g><path d="m272.233 0h227v90h-227z" fill="#00959a"/><path d="m228.083 90h14.15v100h-14.15z" fill="#c0d9dd"/><path d="m212.233 90h15.85v100h-15.85z" fill="#dceaec"/><path d="m377.233 413.65v35.66c0 33.94-27.61 61.55-61.55 61.55s-61.55-27.61-61.55-61.55v-22.01c0-14.54-11.61-26.42-26.05-26.87v-226.49c15.6-12.18 34.94-18.94 55.01-18.94.88 0 1.76.01 2.64.04 27.56.8 52.37 14.4 68.07 37.32 15.71 22.93 19.58 52.21 10.38 78.38l-15.41 47.72c19.14 29.1 28.46 60.32 28.46 95.19z" fill="#dceaec"/><path d="m228.083 173.94v226.49c-.28-.02-.56-.02-.85-.02-14.83 0-26.9 12.06-26.9 26.89v22.01c0 33.94-27.61 61.55-61.55 61.55s-61.55-27.61-61.55-61.55v-27.43c0-34.95 7.88-68.56 24.07-102.57l-14.09-53.18c-7.12-26.29-1.87-54 14.44-75.96 16-21.55 40.46-34.36 67.09-35.13.87-.03 1.75-.04 2.63-.04 20.43 0 40.11 7.01 55.86 19.6.28-.22.56-.45.85-.66z" fill="#f7f9fa"/><path d="m228.083 0h69.15v120h-69.15z" fill="#00b5bc"/><path d="m228.083 0v120h-70.85v-59.29c0-33.47 27.24-60.71 60.71-60.71z" fill="#00eecf"/><path d="m32.233 119.645h30v70.711h-30z" fill="#ffd944" transform="matrix(.707 -.707 .707 .707 -95.767 78.797)"/><path d="m64.733 40.171h30v109.659h-30z" fill="#ffd944" transform="matrix(.73 -.684 .684 .73 -43.41 80.227)"/><path d="m369.201 137.5h71.063v30.001h-71.063z" fill="#ff9000" transform="matrix(.774 -.633 .633 .774 -5.079 290.773)"/></g></svg>