<svg id="Capa_1" enable-background="new 0 0 510 510" height="512" viewBox="0 0 510 510" width="512" xmlns="http://www.w3.org/2000/svg"><g><path d="m259.077 0 12.462 16.451-12.462 13.549h-135v110h-15v-140z" fill="#fc0"/><path d="m94.077 0h15v140h-15z" fill="#ffd944"/><path d="m63.805 122h45.272v58l-22.774 6.956-22.774-6.956z" fill="#f7f9fa"/><path d="m109.077 122h45v58l-22.637 9.83-22.637-9.83z" fill="#dceaec"/><path d="m184.567 347.38c-7.09 9.29-17.87 14.62-29.57 14.62h-46.19l-14.73-74.956 14.73-97.214 53.45 20.17 28.64 105c3.08 11.28.77 23.08-6.33 32.38z" fill="#fc0"/><path d="m108.807 189.73v172.27h-45.65c-11.7 0-22.48-5.33-29.57-14.62-7.1-9.3-9.41-21.1-6.33-32.38l28.09-105z" fill="#ffd944"/><path d="m394.077 0h-135v30h120v45h15 15v-75z" fill="#00b5bc"/><path d="m394.077 130-22.319 13.044-22.681-13.044v-70h45l15 32.143z" fill="#dceaec"/><path d="m439.077 130-20.373 13.044-24.627-13.044v-70h45z" fill="#c0d9dd"/><path d="m108.807 180 7.259 13.681-7.259 16.319h-53.46l8.18-30z" fill="#dceaec"/><path d="m259.077 60 7.714 220.714-7.714 229.286h-105v-30h90v-60h-30v-30h30v-180h-135.27v-30h135.27v-120z" fill="#c0d9dd"/><path d="m484.077 330c0 49.63-40.37 90-90 90l-15-135 15-155h45v122.06c27.63 15.95 45 45.55 45 77.94z" fill="#00959a"/><path d="m394.077 130v290c-49.63 0-90-40.37-90-90 0-32.39 17.37-61.99 45-77.94v-122.06z" fill="#00b5bc"/><path d="m458.657 390v2.61c-16.37 16.88-39.27 27.39-64.58 27.39v-30z" fill="#738b95"/><path d="m274.077 420v60h90v30h-105v-450h15v120h30v30h-30v180h120v30z" fill="#9ab8c2"/></g></svg>