<svg id="Capa_1" enable-background="new 0 0 519.64 519.64" height="512" viewBox="0 0 519.64 519.64" width="512" xmlns="http://www.w3.org/2000/svg"><g><path d="m519.64 404.339h-259.82v-214.772c40.94-.256 81.37 9.639 117.29 28.74 44.92 23.894 81.44 61.903 102.83 107.039z" fill="#ffd298"/><path d="m259.82 189.567v214.773h-259.82l27.55-62.096c20.68-51.321 59.61-94.017 109.6-120.219l1.5-.784 113.63-31.524 2.06-.062c1.83-.044 3.65-.08 5.48-.088z" fill="#ffe3c1"/><path d="m519.64 404.339-10.28 8.47c-68.67 56.59-157.29 87.75-249.54 87.75v-240c104.85 0 199.29 49.56 252.62 132.57z" fill="#dceaec"/><path d="m259.82 260.559v240c-92.25 0-180.87-31.16-249.54-87.75l-10.28-8.47 7.2-11.21c53.33-83.01 147.77-132.57 252.62-132.57z" fill="#f7f9fa"/><path d="m424.82 116.481v2.26c0 34.95-28.44 63.39-63.39 63.39v-163.05l48.13 56.15c9.84 11.48 15.26 26.13 15.26 41.25z" fill="#00959a"/><path d="m361.43 19.081v163.05c-34.95 0-63.38-28.44-63.38-63.39v-2.26c0-15.12 5.42-29.77 15.26-41.25z" fill="#00ccb2"/><path d="m395.02 365.379c0 74.5-60.61 135.1-135.1 135.1h-.1v-239.92c35.74 0 70.26 5.76 102.36 16.64 20.45 23.68 32.84 54.51 32.84 88.18z" fill="#ff4a4a"/><path d="m259.82 260.559v239.92c-74.44-.05-135-60.63-135-135.1 0-33.71 12.41-64.58 32.91-88.27 32.03-10.82 66.45-16.55 102.09-16.55z" fill="#ff936a"/><path d="m274.82 208.759v2.8c0 26.69-14.42 53.46-36.73 68.21-11.66 7.71-24.9 11.79-38.27 11.79v-198.05l56.94 66.44c11.65 13.58 18.06 30.91 18.06 48.81z" fill="#00b5bc"/><path d="m199.82 93.509v198.05c-8.77 0-17.42-1.72-25.69-5.11-29.03-11.9-49.31-42.7-49.31-74.89v-2.8c0-17.9 6.41-35.23 18.06-48.81z" fill="#00eecf"/><path d="m281.03 373.129 31.82 31.82-21.21 21.22-31.82-31.82v-42.43l31.82-31.82 21.21 21.21z" fill="#08475e"/><path d="m259.82 351.919v42.43l-31.82 31.82-21.21-21.22 31.82-31.82-31.82-31.82 21.21-21.21z" fill="#0a789b"/></g></svg>