<svg id="Capa_1" enable-background="new 0 0 509.84 509.84" height="512" viewBox="0 0 509.84 509.84" width="512" xmlns="http://www.w3.org/2000/svg"><g><path d="m478.019 31.82-85.67 85.67-30.61-33.03 84.46-84.46z" fill="#00eecf"/><path d="m509.839 63.64-86.88 86.88-30.61-33.03 85.67-85.67z" fill="#00b5bc"/><path d="m446.199 127.29-100.52 133.51c-16.73 22.81-37.54 46.97-58.58 68.01l-137.88 137.89-53.04-53.04 318.2-318.2z" fill="#dceaec"/><path d="m414.379 95.46-318.2 318.2-53.03-53.03 137.89-137.89c21.04-21.04 45.19-41.84 68-58.57l133.52-100.53z" fill="#f1f6f7"/><path d="m149.219 466.7-21.22 21.21c-14.62 14.62-33.82 21.93-53.03 21.93s-38.41-7.31-53.03-21.93v-.01l74.24-74.24z" fill="#00b5bc"/><path d="m96.179 413.66-74.24 74.24c-29.25-29.24-29.25-76.82 0-106.06l21.21-21.21z" fill="#00eecf"/><path d="m244.679 286.38-84.86 84.85-10.6-10.6 84.85-84.86z" fill="#08475e"/><path d="m126.339 305.397h120v15.001h-120z" fill="#0a789b" transform="matrix(.707 -.707 .707 .707 -166.68 223.428)"/><g fill="#ff4a4a"><path d="m44.969 157.791h30v113.137h-30z" transform="matrix(.707 -.707 .707 .707 -134.011 105.189)"/><path d="m104.969 166.076h30v56.569h-30z" transform="matrix(.707 -.707 .707 .707 -102.295 141.757)"/><path d="m24.969 246.076h30v56.569h-30z" transform="matrix(.707 -.707 .707 .707 -182.295 108.62)"/></g><path d="m284.969 397.791h30v113.137h-30z" fill="#c40048" transform="matrix(.707 -.707 .707 .707 -233.422 345.189)"/><path d="m224.969 446.076h30v56.569h-30z" fill="#c40048" transform="matrix(.707 -.707 .707 .707 -265.138 308.62)"/><path d="m304.969 366.076h30v56.569h-30z" fill="#c40048" transform="matrix(.707 -.707 .707 .707 -185.138 341.757)"/></g></svg>