<svg id="Capa_1" enable-background="new 0 0 509.64 509.64" height="512" viewBox="0 0 509.64 509.64" width="512" xmlns="http://www.w3.org/2000/svg"><g><path d="m509.64 104.82v30h-165v35h-14.31v-95h14.31v30z" fill="#c40048"/><path d="m330.33 74.82v95h-15.69v-35h-165v-30h165v-30z" fill="#ff4a4a"/><path d="m501.03 393.39-88.04 41.43h-82.66v-30h14.31v-45h30v45h31.65l81.96-38.57z" fill="#c0d9dd"/><path d="m330.33 404.82v30h-170.69v-30h100v-45h30v45z" fill="#dceaec"/><path d="m330.33 164.82v209.91l-88.3-.11-204.81-73.31-37.22-136.49h93.47l25 45h70.82l55-45z" fill="#f1f6f7"/><path d="m509.64 275.14c0 29.87-17.44 57.44-44.44 70.22l-62.2 29.46-72.67-.09v-209.91h95.29" fill="#dceaec"/><path d="m319.64 254.82h-30v-30h-30v30h-30v30h30v30h30v-30h30z" fill="#ff4a4a"/><path d="m473.234 209.914-47.618-45.094h-70.976v120h134.902l19.456.127c.416-3.232.642-6.506.642-9.811 0-2.269-.117-4.455-.333-6.572l-.038-.345c-1.091-9.968-4.447-18.311-9.083-25.873-3.027-4.885-6.708-10.209-11.168-15.711-5.413-6.678-10.834-12.211-15.784-16.721z" fill="#00b5bc"/></g></svg>