<svg id="Capa_1" enable-background="new 0 0 511.51 511.51" height="512" viewBox="0 0 511.51 511.51" width="512" xmlns="http://www.w3.org/2000/svg"><g><path d="m480.755 69.78v206.11l-225 235.62-12.67-241.722 12.67-269.768.02-.02 9.8 8.45c.15.12 18.3 15.53 51.95 30.71 30.96 13.97 81.8 30.62 148.23 30.62z" fill="#00b5bc"/><path d="m255.755.021v511.49l-225-235.82v-205.911h15c66.43 0 117.27-16.65 148.23-30.62 33.65-15.18 51.8-30.59 51.97-30.74z" fill="#00eecf"/><path d="m420.755 202.05v7.8c0 23.26-9.04 45.13-25.46 61.6l-139.54 144.96-12.67-150.815 12.67-112.025 13.23-13.23c16.48-16.48 38.39-25.56 61.7-25.56h2.8c48.12 0 87.27 39.15 87.27 87.27z" fill="#910035"/><path d="m255.755 153.57v262.84l-139.54-144.96c-16.42-16.47-25.46-38.34-25.46-61.6v-7.8c0-48.12 39.15-87.27 87.27-87.27 21.59 0 42.33 7.96 58.38 22.4l18.81 16.93z" fill="#c40048"/><path d="m300.755 249.78v30h-30v30h-15l-7.923-45 7.923-45h15v30z" fill="#c0d9dd"/><path d="m255.755 219.78v90h-15v-30h-30v-30h30v-30z" fill="#f7f9fa"/></g></svg>