<svg id="Capa_1" enable-background="new 0 0 510 510" height="512" viewBox="0 0 510 510" width="512" xmlns="http://www.w3.org/2000/svg"><g><path d="m510 255c0 68.11-26.52 132.15-74.69 180.31-48.16 48.17-112.2 74.69-180.31 74.69v-510c68.11 0 132.15 26.52 180.31 74.69 48.17 48.16 74.69 112.2 74.69 180.31z" fill="#00959a"/><path d="m255 0v510c-68.11 0-132.15-26.52-180.31-74.69-48.17-48.16-74.69-112.2-74.69-180.31s26.52-132.15 74.69-180.31c48.16-48.17 112.2-74.69 180.31-74.69z" fill="#00ccb2"/><path d="m150.955 269.137-143.541 47.286c10.985 44.624 33.944 85.559 67.274 118.889 22.913 22.914 49.425 40.917 78.253 53.509l64.558-135.75c-35.201-13.506-61.341-45.441-66.544-83.934z" fill="#00eecf"/><path d="m373.3 28.98-64.41 135.94c-15.77-9.47-34.2-14.92-53.89-14.92v-150c41.89 0 82.24 10.05 118.3 28.98z" fill="#00b5bc"/><path d="m255 0v150c-19.3 0-37.4 5.24-52.96 14.37l-54.04-140.96c33.11-15.32 69.43-23.41 107-23.41z" fill="#00eecf"/><path d="m359.045 269.135c-5.203 38.494-31.343 70.43-66.544 83.936l64.558 135.75c28.828-12.592 55.34-30.596 78.253-53.509 33.33-33.33 56.288-74.265 67.274-118.889z" fill="#00b5bc"/><path d="m305 255c0 27.57-22.43 50-50 50v-100c27.57 0 50 22.43 50 50z" fill="#00b5bc"/><path d="m255 205v100c-27.57 0-50-22.43-50-50s22.43-50 50-50z" fill="#00eecf"/></g></svg>