<svg id="Capa_1" enable-background="new 0 0 510 510" height="512" viewBox="0 0 510 510" width="512" xmlns="http://www.w3.org/2000/svg"><g><path d="m388.62 77.5-21.58 22.56-30.66-52.56h-81.38l-7.5-15.923 7.5-14.077h98.62z" fill="#c0d9dd"/><path d="m255 17.5v30h-81.38l-30.66 52.56-21.58-22.56 35-60z" fill="#dceaec"/><path d="m495 89.937-15 267.563-105 16.67-120-16.67v-267.563z" fill="#08475e"/><path d="m255 89.937v267.563l-105 24.582-120-24.582-15-267.563z" fill="#0a789b"/><path d="m166.429 312.5h-27.241l-32.972-98.918-16.216 38.918h-90v-30h70l25-60h25.812l30.557 91.674 32.202-116.971h27.054l30 85.297h14.375v30h-35.625l-20.434-58.099z" fill="#ffe377"/><path d="m386.422 312.5h-27.225l-32.995-98.739-16.222 38.739h-54.98v-30h35.02l25-59.703h25.783l30.564 91.466 32.211-116.763h27.646l25 85h53.776v30h-76.224l-15.894-54.041z" fill="#fc0"/><path d="m255 77.5-7.5 14.209 7.5 15.791h225v250h-225l-19.714 67.5 19.714 67.5h255v-135-280z" fill="#dceaec"/><path d="m255 107.5v-17.563-12.437h-255v280 135h255v-135h-225v-250z" fill="#f7f9fa"/><path d="m60 410h30v30h-30z" fill="#00eecf"/><path d="m120 410h30v30h-30z" fill="#ffd944"/><path d="m180 410h30v30h-30z" fill="#ff4a4a"/><path d="m300 410h150v30h-150z" fill="#910035"/></g></svg>