<svg id="Capa_1" enable-background="new 0 0 510 510" height="512" viewBox="0 0 510 510" width="512" xmlns="http://www.w3.org/2000/svg"><g><path d="m510 363.75v15h-70.442l-14.648-15 41.541-4.374z" fill="#9ab8c2"/><path d="m510 348.75v15h-41.374-43.716l14.655-15z" fill="#c0d9dd"/><path d="m439.91 363.75v10.09c0 19.25-15.66 34.91-34.91 34.91h-30l-30-45 49.055-12.681z" fill="#c0d9dd"/><path d="m439.91 353.66v10.09h-94.91l30-45h30c19.25 0 34.91 15.66 34.91 34.91z" fill="#dceaec"/><path d="m375 298.75v65l-37.5 8.681-37.5-8.681v-81.121l45 16.121z" fill="#f7f9fa"/><path d="m375 363.75v65h-75v-65h39.857z" fill="#dceaec"/><path d="m300 282.629v81.121l-103.352 15-106.648-15 15-65h60z" fill="#7affe6"/><path d="m300 363.75v65h-195l-15-65z" fill="#00d6de"/><path d="m135 298.75h30v65h-30z" fill="#00ccb2"/><path d="m225 363.75h-15-15v-65l15-9.527 15 9.527z" fill="#00ccb2"/><path d="m75 378.75h-45l-11.967-15 34.813-4.769 37.154 4.769z" fill="#c0d9dd"/><path d="m90 363.75h-71.967l11.967-15h45z" fill="#dceaec"/><path d="m30 363.75-15 7.5-15-7.5v-65h30z" fill="#f7f9fa"/><path d="m0 363.75h30v65h-30z" fill="#dceaec"/><path d="m105 456.25h-30v-92.5l15.824-11.099 14.176 11.099z" fill="#dceaec"/><path d="m75 271.25h30v92.5h-30z" fill="#f7f9fa"/><path d="m300 148.75v30l-45 15.53v-61.19z" fill="#9ab8c2"/><path d="m255 133.09v61.19l-45-15.53v-30z" fill="#c0d9dd"/><path d="m345 216.69v37.06l-89 21.36-1-.23v-96.13h52.05c20.93 0 37.95 17.02 37.95 37.94z" fill="#c0d9dd"/><path d="m255 178.75v96.13l-90-21.13v-37.06c0-20.92 17.02-37.94 37.94-37.94z" fill="#dceaec"/><path d="m330 92.22v56.53h-75v-95h36.53c21.21 0 38.47 17.26 38.47 38.47z" fill="#c40048"/><path d="m255 53.75v95h-75v-56.53c0-21.21 17.26-38.47 38.47-38.47z" fill="#ff4a4a"/><path d="m165 253.75h90v45h-43.648-46.352z" fill="#0a789b"/><path d="m255 253.75h90v45h-43.648-46.352z" fill="#08475e"/></g></svg>