<svg id="Capa_1" enable-background="new 0 0 509.25 509.25" height="512" viewBox="0 0 509.25 509.25" width="512" xmlns="http://www.w3.org/2000/svg"><g><path d="m477.365 190c0 59.43-27.89 115.39-75 151.26v167.99h-120v-509.25h5c104.77 0 190 85.23 190 190z" fill="#ffd298"/><path d="m282.365 0v509.25h-105v-88.75h-6.66c-15.05 0-34.41-1.48-50.6-13.04-18.41-13.14-27.74-35.84-27.74-67.46v-25h-12.44c-26.49 0-48.04-21.55-48.04-48.04 0-7.23 1.95-14.35 5.63-20.59l.09-.14 55.49-91.63c8.01-42.58 30.09-81.31 62.37-109.31 33.66-29.21 76.95-45.29 121.9-45.29z" fill="#ffe3c1"/><path d="m282.365 100v-30c-66.17 0-120 53.83-120 120s53.83 120 120 120v-30c-49.63 0-90-40.37-90-90s40.37-90 90-90z" fill="#ff4a4a"/><path d="m402.365 190c0 66.17-53.83 120-120 120v-30c49.63 0 90-40.37 90-90s-40.37-90-90-90v-30c66.17 0 120 53.83 120 120z" fill="#c40048"/><path d="m327.365 175v30h-30v30h-15v-90h15v30z" fill="#c40048"/><path d="m282.365 145v90h-15v-30h-30v-30h30v-30z" fill="#ff4a4a"/></g></svg>